<mxfile host="Electron" agent="Mozilla/5.0 (Windows NT 10.0; Win64; x64) AppleWebKit/537.36 (KHTML, like Gecko) draw.io/24.7.17 Chrome/128.0.6613.36 Electron/32.0.1 Safari/537.36" version="24.7.17">
  <diagram name="Pagina-1" id="tmrHneUwIsxSQ_Ii5XRq">
    <mxGraphModel dx="1183" dy="685" grid="1" gridSize="10" guides="1" tooltips="1" connect="1" arrows="1" fold="1" page="1" pageScale="1" pageWidth="827" pageHeight="1169" math="1" shadow="0">
      <root>
        <mxCell id="0" />
        <mxCell id="1" parent="0" />
        <mxCell id="LSifstANk00XbFsExsaG-1" value="" style="ellipse;whiteSpace=wrap;html=1;aspect=fixed;fillColor=none;" vertex="1" parent="1">
          <mxGeometry x="300" y="247.5" width="40" height="40" as="geometry" />
        </mxCell>
        <mxCell id="LSifstANk00XbFsExsaG-2" style="edgeStyle=orthogonalEdgeStyle;rounded=0;orthogonalLoop=1;jettySize=auto;html=1;entryX=0.5;entryY=0;entryDx=0;entryDy=0;" edge="1" parent="1" source="LSifstANk00XbFsExsaG-3" target="LSifstANk00XbFsExsaG-1">
          <mxGeometry relative="1" as="geometry" />
        </mxCell>
        <mxCell id="LSifstANk00XbFsExsaG-3" value="" style="rounded=0;whiteSpace=wrap;html=1;fillColor=#000000;rotation=-180;" vertex="1" parent="1">
          <mxGeometry x="305" y="207.5" width="30" height="10" as="geometry" />
        </mxCell>
        <mxCell id="LSifstANk00XbFsExsaG-4" style="edgeStyle=orthogonalEdgeStyle;rounded=0;orthogonalLoop=1;jettySize=auto;html=1;entryX=0.5;entryY=0;entryDx=0;entryDy=0;" edge="1" parent="1" source="LSifstANk00XbFsExsaG-5" target="LSifstANk00XbFsExsaG-10">
          <mxGeometry relative="1" as="geometry" />
        </mxCell>
        <mxCell id="LSifstANk00XbFsExsaG-5" value="" style="rounded=0;whiteSpace=wrap;html=1;fillColor=#000000;rotation=-180;" vertex="1" parent="1">
          <mxGeometry x="340" y="317.5" width="30" height="10" as="geometry" />
        </mxCell>
        <mxCell id="LSifstANk00XbFsExsaG-6" value="" style="ellipse;whiteSpace=wrap;html=1;aspect=fixed;fillColor=none;" vertex="1" parent="1">
          <mxGeometry x="370" y="247.5" width="40" height="40" as="geometry" />
        </mxCell>
        <mxCell id="LSifstANk00XbFsExsaG-7" value="" style="endArrow=classic;html=1;rounded=0;exitX=1;exitY=1;exitDx=0;exitDy=0;entryX=0.75;entryY=1;entryDx=0;entryDy=0;" edge="1" parent="1" source="LSifstANk00XbFsExsaG-1" target="LSifstANk00XbFsExsaG-5">
          <mxGeometry width="50" height="50" relative="1" as="geometry">
            <mxPoint x="330" y="337.5" as="sourcePoint" />
            <mxPoint x="380" y="287.5" as="targetPoint" />
          </mxGeometry>
        </mxCell>
        <mxCell id="LSifstANk00XbFsExsaG-8" value="" style="endArrow=classic;html=1;rounded=0;exitX=0;exitY=1;exitDx=0;exitDy=0;entryX=0.25;entryY=1;entryDx=0;entryDy=0;" edge="1" parent="1" source="LSifstANk00XbFsExsaG-6" target="LSifstANk00XbFsExsaG-5">
          <mxGeometry width="50" height="50" relative="1" as="geometry">
            <mxPoint x="344" y="291.5" as="sourcePoint" />
            <mxPoint x="358" y="327.5" as="targetPoint" />
          </mxGeometry>
        </mxCell>
        <mxCell id="LSifstANk00XbFsExsaG-9" style="edgeStyle=orthogonalEdgeStyle;rounded=0;orthogonalLoop=1;jettySize=auto;html=1;entryX=0.5;entryY=1;entryDx=0;entryDy=0;" edge="1" parent="1" source="LSifstANk00XbFsExsaG-10" target="LSifstANk00XbFsExsaG-12">
          <mxGeometry relative="1" as="geometry" />
        </mxCell>
        <mxCell id="LSifstANk00XbFsExsaG-10" value="" style="ellipse;whiteSpace=wrap;html=1;aspect=fixed;fillColor=none;" vertex="1" parent="1">
          <mxGeometry x="335" y="357.5" width="40" height="40" as="geometry" />
        </mxCell>
        <mxCell id="LSifstANk00XbFsExsaG-11" style="edgeStyle=orthogonalEdgeStyle;rounded=1;orthogonalLoop=1;jettySize=auto;html=1;entryX=1;entryY=0.5;entryDx=0;entryDy=0;curved=0;" edge="1" parent="1" source="LSifstANk00XbFsExsaG-12" target="LSifstANk00XbFsExsaG-6">
          <mxGeometry relative="1" as="geometry">
            <Array as="points">
              <mxPoint x="355" y="447.5" />
              <mxPoint x="430" y="447.5" />
              <mxPoint x="430" y="267.5" />
            </Array>
          </mxGeometry>
        </mxCell>
        <mxCell id="LSifstANk00XbFsExsaG-12" value="" style="rounded=0;whiteSpace=wrap;html=1;fillColor=#000000;rotation=-180;" vertex="1" parent="1">
          <mxGeometry x="340" y="427.5" width="30" height="10" as="geometry" />
        </mxCell>
        <mxCell id="LSifstANk00XbFsExsaG-13" value="" style="ellipse;whiteSpace=wrap;html=1;aspect=fixed;fillColor=#000000;" vertex="1" parent="1">
          <mxGeometry x="385" y="262.5" width="10" height="10" as="geometry" />
        </mxCell>
        <mxCell id="LSifstANk00XbFsExsaG-14" value="\(t_1\)" style="text;html=1;align=center;verticalAlign=middle;whiteSpace=wrap;rounded=0;" vertex="1" parent="1">
          <mxGeometry x="335" y="200" width="30" height="25" as="geometry" />
        </mxCell>
        <mxCell id="LSifstANk00XbFsExsaG-15" value="\(t_2\)" style="text;html=1;align=center;verticalAlign=middle;whiteSpace=wrap;rounded=0;" vertex="1" parent="1">
          <mxGeometry x="370" y="310" width="30" height="25" as="geometry" />
        </mxCell>
        <mxCell id="LSifstANk00XbFsExsaG-16" value="\(t_3\)" style="text;html=1;align=center;verticalAlign=middle;whiteSpace=wrap;rounded=0;" vertex="1" parent="1">
          <mxGeometry x="370" y="420" width="30" height="25" as="geometry" />
        </mxCell>
        <mxCell id="LSifstANk00XbFsExsaG-17" value="\(p_3\)" style="text;html=1;align=center;verticalAlign=middle;whiteSpace=wrap;rounded=0;" vertex="1" parent="1">
          <mxGeometry x="380" y="365" width="30" height="25" as="geometry" />
        </mxCell>
        <mxCell id="LSifstANk00XbFsExsaG-18" value="\(p_2\)" style="text;html=1;align=center;verticalAlign=middle;whiteSpace=wrap;rounded=0;" vertex="1" parent="1">
          <mxGeometry x="395" y="225" width="30" height="25" as="geometry" />
        </mxCell>
        <mxCell id="LSifstANk00XbFsExsaG-19" value="\(p_1\)" style="text;html=1;align=center;verticalAlign=middle;whiteSpace=wrap;rounded=0;" vertex="1" parent="1">
          <mxGeometry x="280" y="255" width="20" height="25" as="geometry" />
        </mxCell>
        <mxCell id="LSifstANk00XbFsExsaG-21" value="" style="ellipse;whiteSpace=wrap;html=1;aspect=fixed;fillColor=none;" vertex="1" parent="1">
          <mxGeometry x="150.03" y="527.5" width="40" height="40" as="geometry" />
        </mxCell>
        <mxCell id="LSifstANk00XbFsExsaG-22" style="edgeStyle=orthogonalEdgeStyle;rounded=0;orthogonalLoop=1;jettySize=auto;html=1;entryX=0.5;entryY=0;entryDx=0;entryDy=0;" edge="1" parent="1" source="LSifstANk00XbFsExsaG-23" target="LSifstANk00XbFsExsaG-21">
          <mxGeometry relative="1" as="geometry" />
        </mxCell>
        <mxCell id="LSifstANk00XbFsExsaG-23" value="" style="rounded=0;whiteSpace=wrap;html=1;fillColor=#000000;rotation=-180;" vertex="1" parent="1">
          <mxGeometry x="155.03" y="487.5" width="30" height="10" as="geometry" />
        </mxCell>
        <mxCell id="LSifstANk00XbFsExsaG-24" style="edgeStyle=orthogonalEdgeStyle;rounded=0;orthogonalLoop=1;jettySize=auto;html=1;entryX=0.5;entryY=0;entryDx=0;entryDy=0;" edge="1" parent="1" source="LSifstANk00XbFsExsaG-25" target="LSifstANk00XbFsExsaG-30">
          <mxGeometry relative="1" as="geometry" />
        </mxCell>
        <mxCell id="LSifstANk00XbFsExsaG-25" value="" style="rounded=0;whiteSpace=wrap;html=1;fillColor=#000000;rotation=-180;" vertex="1" parent="1">
          <mxGeometry x="190.03" y="597.5" width="30" height="10" as="geometry" />
        </mxCell>
        <mxCell id="LSifstANk00XbFsExsaG-26" value="" style="ellipse;whiteSpace=wrap;html=1;aspect=fixed;fillColor=none;" vertex="1" parent="1">
          <mxGeometry x="220.03" y="527.5" width="40" height="40" as="geometry" />
        </mxCell>
        <mxCell id="LSifstANk00XbFsExsaG-27" value="" style="endArrow=classic;html=1;rounded=0;exitX=1;exitY=1;exitDx=0;exitDy=0;entryX=0.75;entryY=1;entryDx=0;entryDy=0;" edge="1" parent="1" source="LSifstANk00XbFsExsaG-21" target="LSifstANk00XbFsExsaG-25">
          <mxGeometry width="50" height="50" relative="1" as="geometry">
            <mxPoint x="180.03" y="617.5" as="sourcePoint" />
            <mxPoint x="230.03" y="567.5" as="targetPoint" />
          </mxGeometry>
        </mxCell>
        <mxCell id="LSifstANk00XbFsExsaG-28" value="" style="endArrow=classic;html=1;rounded=0;exitX=0;exitY=1;exitDx=0;exitDy=0;entryX=0.25;entryY=1;entryDx=0;entryDy=0;" edge="1" parent="1" source="LSifstANk00XbFsExsaG-26" target="LSifstANk00XbFsExsaG-25">
          <mxGeometry width="50" height="50" relative="1" as="geometry">
            <mxPoint x="194.03" y="571.5" as="sourcePoint" />
            <mxPoint x="208.03" y="607.5" as="targetPoint" />
          </mxGeometry>
        </mxCell>
        <mxCell id="LSifstANk00XbFsExsaG-29" style="edgeStyle=orthogonalEdgeStyle;rounded=0;orthogonalLoop=1;jettySize=auto;html=1;entryX=0.5;entryY=1;entryDx=0;entryDy=0;" edge="1" parent="1" source="LSifstANk00XbFsExsaG-30" target="LSifstANk00XbFsExsaG-32">
          <mxGeometry relative="1" as="geometry" />
        </mxCell>
        <mxCell id="LSifstANk00XbFsExsaG-30" value="" style="ellipse;whiteSpace=wrap;html=1;aspect=fixed;fillColor=none;" vertex="1" parent="1">
          <mxGeometry x="185.03" y="637.5" width="40" height="40" as="geometry" />
        </mxCell>
        <mxCell id="LSifstANk00XbFsExsaG-31" style="edgeStyle=orthogonalEdgeStyle;rounded=1;orthogonalLoop=1;jettySize=auto;html=1;entryX=1;entryY=0.5;entryDx=0;entryDy=0;curved=0;" edge="1" parent="1" source="LSifstANk00XbFsExsaG-32" target="LSifstANk00XbFsExsaG-26">
          <mxGeometry relative="1" as="geometry">
            <Array as="points">
              <mxPoint x="205.03" y="727.5" />
              <mxPoint x="280.03" y="727.5" />
              <mxPoint x="280.03" y="547.5" />
            </Array>
          </mxGeometry>
        </mxCell>
        <mxCell id="LSifstANk00XbFsExsaG-32" value="" style="rounded=0;whiteSpace=wrap;html=1;fillColor=#000000;rotation=-180;" vertex="1" parent="1">
          <mxGeometry x="190.03" y="707.5" width="30" height="10" as="geometry" />
        </mxCell>
        <mxCell id="LSifstANk00XbFsExsaG-33" value="" style="ellipse;whiteSpace=wrap;html=1;aspect=fixed;fillColor=#000000;" vertex="1" parent="1">
          <mxGeometry x="235.03" y="542.5" width="10" height="10" as="geometry" />
        </mxCell>
        <mxCell id="LSifstANk00XbFsExsaG-34" value="\(t_1\)" style="text;html=1;align=center;verticalAlign=middle;whiteSpace=wrap;rounded=0;" vertex="1" parent="1">
          <mxGeometry x="185.03" y="480" width="30" height="25" as="geometry" />
        </mxCell>
        <mxCell id="LSifstANk00XbFsExsaG-35" value="\(t_2\)" style="text;html=1;align=center;verticalAlign=middle;whiteSpace=wrap;rounded=0;" vertex="1" parent="1">
          <mxGeometry x="220.03" y="590" width="30" height="25" as="geometry" />
        </mxCell>
        <mxCell id="LSifstANk00XbFsExsaG-36" value="\(t_3\)" style="text;html=1;align=center;verticalAlign=middle;whiteSpace=wrap;rounded=0;" vertex="1" parent="1">
          <mxGeometry x="220.03" y="700" width="30" height="25" as="geometry" />
        </mxCell>
        <mxCell id="LSifstANk00XbFsExsaG-37" value="\(p_3\)" style="text;html=1;align=center;verticalAlign=middle;whiteSpace=wrap;rounded=0;" vertex="1" parent="1">
          <mxGeometry x="230.03" y="645" width="30" height="25" as="geometry" />
        </mxCell>
        <mxCell id="LSifstANk00XbFsExsaG-38" value="\(p_2\)" style="text;html=1;align=center;verticalAlign=middle;whiteSpace=wrap;rounded=0;" vertex="1" parent="1">
          <mxGeometry x="245.03" y="505" width="30" height="25" as="geometry" />
        </mxCell>
        <mxCell id="LSifstANk00XbFsExsaG-39" value="\(p_1\)" style="text;html=1;align=center;verticalAlign=middle;whiteSpace=wrap;rounded=0;" vertex="1" parent="1">
          <mxGeometry x="130.03" y="535" width="20" height="25" as="geometry" />
        </mxCell>
        <mxCell id="LSifstANk00XbFsExsaG-41" value="" style="ellipse;whiteSpace=wrap;html=1;aspect=fixed;fillColor=none;" vertex="1" parent="1">
          <mxGeometry x="460" y="535" width="40" height="40" as="geometry" />
        </mxCell>
        <mxCell id="LSifstANk00XbFsExsaG-42" style="edgeStyle=orthogonalEdgeStyle;rounded=0;orthogonalLoop=1;jettySize=auto;html=1;entryX=0.5;entryY=0;entryDx=0;entryDy=0;" edge="1" parent="1" source="LSifstANk00XbFsExsaG-43" target="LSifstANk00XbFsExsaG-41">
          <mxGeometry relative="1" as="geometry" />
        </mxCell>
        <mxCell id="LSifstANk00XbFsExsaG-43" value="" style="rounded=0;whiteSpace=wrap;html=1;fillColor=#000000;rotation=-180;" vertex="1" parent="1">
          <mxGeometry x="465" y="495" width="30" height="10" as="geometry" />
        </mxCell>
        <mxCell id="LSifstANk00XbFsExsaG-44" style="edgeStyle=orthogonalEdgeStyle;rounded=0;orthogonalLoop=1;jettySize=auto;html=1;entryX=0.5;entryY=0;entryDx=0;entryDy=0;" edge="1" parent="1" source="LSifstANk00XbFsExsaG-45" target="LSifstANk00XbFsExsaG-50">
          <mxGeometry relative="1" as="geometry" />
        </mxCell>
        <mxCell id="LSifstANk00XbFsExsaG-45" value="" style="rounded=0;whiteSpace=wrap;html=1;fillColor=#000000;rotation=-180;" vertex="1" parent="1">
          <mxGeometry x="500" y="605" width="30" height="10" as="geometry" />
        </mxCell>
        <mxCell id="LSifstANk00XbFsExsaG-46" value="" style="ellipse;whiteSpace=wrap;html=1;aspect=fixed;fillColor=none;" vertex="1" parent="1">
          <mxGeometry x="530" y="535" width="40" height="40" as="geometry" />
        </mxCell>
        <mxCell id="LSifstANk00XbFsExsaG-47" value="" style="endArrow=classic;html=1;rounded=0;exitX=1;exitY=1;exitDx=0;exitDy=0;entryX=0.75;entryY=1;entryDx=0;entryDy=0;" edge="1" parent="1" source="LSifstANk00XbFsExsaG-41" target="LSifstANk00XbFsExsaG-45">
          <mxGeometry width="50" height="50" relative="1" as="geometry">
            <mxPoint x="490" y="625" as="sourcePoint" />
            <mxPoint x="540" y="575" as="targetPoint" />
          </mxGeometry>
        </mxCell>
        <mxCell id="LSifstANk00XbFsExsaG-48" value="" style="endArrow=classic;html=1;rounded=0;exitX=0;exitY=1;exitDx=0;exitDy=0;entryX=0.25;entryY=1;entryDx=0;entryDy=0;" edge="1" parent="1" source="LSifstANk00XbFsExsaG-46" target="LSifstANk00XbFsExsaG-45">
          <mxGeometry width="50" height="50" relative="1" as="geometry">
            <mxPoint x="504" y="579" as="sourcePoint" />
            <mxPoint x="518" y="615" as="targetPoint" />
          </mxGeometry>
        </mxCell>
        <mxCell id="LSifstANk00XbFsExsaG-49" style="edgeStyle=orthogonalEdgeStyle;rounded=0;orthogonalLoop=1;jettySize=auto;html=1;entryX=0.5;entryY=1;entryDx=0;entryDy=0;" edge="1" parent="1" source="LSifstANk00XbFsExsaG-50" target="LSifstANk00XbFsExsaG-52">
          <mxGeometry relative="1" as="geometry" />
        </mxCell>
        <mxCell id="LSifstANk00XbFsExsaG-50" value="" style="ellipse;whiteSpace=wrap;html=1;aspect=fixed;fillColor=none;" vertex="1" parent="1">
          <mxGeometry x="495" y="645" width="40" height="40" as="geometry" />
        </mxCell>
        <mxCell id="LSifstANk00XbFsExsaG-51" style="edgeStyle=orthogonalEdgeStyle;rounded=1;orthogonalLoop=1;jettySize=auto;html=1;entryX=1;entryY=0.5;entryDx=0;entryDy=0;curved=0;" edge="1" parent="1" source="LSifstANk00XbFsExsaG-52" target="LSifstANk00XbFsExsaG-46">
          <mxGeometry relative="1" as="geometry">
            <Array as="points">
              <mxPoint x="515" y="735" />
              <mxPoint x="590" y="735" />
              <mxPoint x="590" y="555" />
            </Array>
          </mxGeometry>
        </mxCell>
        <mxCell id="LSifstANk00XbFsExsaG-52" value="" style="rounded=0;whiteSpace=wrap;html=1;fillColor=#000000;rotation=-180;" vertex="1" parent="1">
          <mxGeometry x="500" y="715" width="30" height="10" as="geometry" />
        </mxCell>
        <mxCell id="LSifstANk00XbFsExsaG-54" value="\(t_1\)" style="text;html=1;align=center;verticalAlign=middle;whiteSpace=wrap;rounded=0;" vertex="1" parent="1">
          <mxGeometry x="495" y="487.5" width="30" height="25" as="geometry" />
        </mxCell>
        <mxCell id="LSifstANk00XbFsExsaG-55" value="\(t_2\)" style="text;html=1;align=center;verticalAlign=middle;whiteSpace=wrap;rounded=0;" vertex="1" parent="1">
          <mxGeometry x="530" y="597.5" width="30" height="25" as="geometry" />
        </mxCell>
        <mxCell id="LSifstANk00XbFsExsaG-56" value="\(t_3\)" style="text;html=1;align=center;verticalAlign=middle;whiteSpace=wrap;rounded=0;" vertex="1" parent="1">
          <mxGeometry x="530" y="707.5" width="30" height="25" as="geometry" />
        </mxCell>
        <mxCell id="LSifstANk00XbFsExsaG-57" value="\(p_3\)" style="text;html=1;align=center;verticalAlign=middle;whiteSpace=wrap;rounded=0;" vertex="1" parent="1">
          <mxGeometry x="540" y="652.5" width="30" height="25" as="geometry" />
        </mxCell>
        <mxCell id="LSifstANk00XbFsExsaG-58" value="\(p_2\)" style="text;html=1;align=center;verticalAlign=middle;whiteSpace=wrap;rounded=0;" vertex="1" parent="1">
          <mxGeometry x="555" y="512.5" width="30" height="25" as="geometry" />
        </mxCell>
        <mxCell id="LSifstANk00XbFsExsaG-59" value="\(p_1\)" style="text;html=1;align=center;verticalAlign=middle;whiteSpace=wrap;rounded=0;" vertex="1" parent="1">
          <mxGeometry x="440" y="542.5" width="20" height="25" as="geometry" />
        </mxCell>
        <mxCell id="LSifstANk00XbFsExsaG-60" value="" style="ellipse;whiteSpace=wrap;html=1;aspect=fixed;fillColor=#000000;" vertex="1" parent="1">
          <mxGeometry x="510" y="660" width="10" height="10" as="geometry" />
        </mxCell>
        <mxCell id="LSifstANk00XbFsExsaG-61" value="" style="endArrow=classic;html=1;rounded=0;curved=1;strokeColor=#636363;strokeWidth=4;" edge="1" parent="1">
          <mxGeometry width="50" height="50" relative="1" as="geometry">
            <mxPoint x="455" y="347.5" as="sourcePoint" />
            <mxPoint x="520" y="480" as="targetPoint" />
            <Array as="points">
              <mxPoint x="520" y="348" />
            </Array>
          </mxGeometry>
        </mxCell>
        <mxCell id="LSifstANk00XbFsExsaG-64" value="scatta \(t_2\)" style="edgeLabel;html=1;align=center;verticalAlign=middle;resizable=0;points=[];" vertex="1" connectable="0" parent="LSifstANk00XbFsExsaG-61">
          <mxGeometry x="0.1878" y="-5" relative="1" as="geometry">
            <mxPoint as="offset" />
          </mxGeometry>
        </mxCell>
        <mxCell id="LSifstANk00XbFsExsaG-62" value="" style="endArrow=classic;html=1;rounded=0;curved=1;strokeColor=#636363;strokeWidth=4;" edge="1" parent="1">
          <mxGeometry width="50" height="50" relative="1" as="geometry">
            <mxPoint x="280" y="340" as="sourcePoint" />
            <mxPoint x="220.02999999999997" y="480" as="targetPoint" />
            <Array as="points">
              <mxPoint x="220.02999999999997" y="348" />
            </Array>
          </mxGeometry>
        </mxCell>
        <mxCell id="LSifstANk00XbFsExsaG-63" value="scatta \(t_1\)" style="edgeLabel;html=1;align=center;verticalAlign=middle;resizable=0;points=[];" vertex="1" connectable="0" parent="LSifstANk00XbFsExsaG-62">
          <mxGeometry x="0.1342" y="9" relative="1" as="geometry">
            <mxPoint as="offset" />
          </mxGeometry>
        </mxCell>
        <mxCell id="LSifstANk00XbFsExsaG-67" style="edgeStyle=orthogonalEdgeStyle;rounded=0;orthogonalLoop=1;jettySize=auto;html=1;entryX=0.5;entryY=0;entryDx=0;entryDy=0;" edge="1" parent="1" source="LSifstANk00XbFsExsaG-68" target="LSifstANk00XbFsExsaG-70">
          <mxGeometry relative="1" as="geometry" />
        </mxCell>
        <mxCell id="LSifstANk00XbFsExsaG-68" value="\(\begin{bmatrix} 0&amp;amp; 1 &amp;amp; 0&amp;nbsp; \end{bmatrix}\)" style="text;html=1;align=center;verticalAlign=middle;whiteSpace=wrap;rounded=0;" vertex="1" parent="1">
          <mxGeometry x="740" y="431.25" width="70" height="20" as="geometry" />
        </mxCell>
        <mxCell id="LSifstANk00XbFsExsaG-69" value="\(t_1\)" style="text;html=1;align=center;verticalAlign=middle;whiteSpace=wrap;rounded=0;" vertex="1" parent="1">
          <mxGeometry x="750" y="461.25" width="20" height="20" as="geometry" />
        </mxCell>
        <mxCell id="LSifstANk00XbFsExsaG-70" value="\(\begin{bmatrix} \omega&amp;amp; 1 &amp;amp; 0&amp;nbsp; \end{bmatrix}\)" style="text;html=1;align=center;verticalAlign=middle;whiteSpace=wrap;rounded=0;" vertex="1" parent="1">
          <mxGeometry x="740" y="491.25" width="70" height="20" as="geometry" />
        </mxCell>
        <mxCell id="LSifstANk00XbFsExsaG-71" value="\(\begin{bmatrix} \omega&amp;amp; 1 &amp;amp; 0&amp;nbsp; \end{bmatrix}\)" style="text;html=1;align=center;verticalAlign=middle;whiteSpace=wrap;rounded=0;fontColor=#FF3399;" vertex="1" parent="1">
          <mxGeometry x="680" y="548.75" width="70" height="20" as="geometry" />
        </mxCell>
        <mxCell id="LSifstANk00XbFsExsaG-72" value="\(\begin{bmatrix} \omega&amp;amp; 0 &amp;amp; 1&amp;nbsp; \end{bmatrix}\)" style="text;html=1;align=center;verticalAlign=middle;whiteSpace=wrap;rounded=0;" vertex="1" parent="1">
          <mxGeometry x="800" y="548.75" width="70" height="20" as="geometry" />
        </mxCell>
        <mxCell id="LSifstANk00XbFsExsaG-75" value="" style="endArrow=classic;html=1;rounded=1;entryX=0.5;entryY=0;entryDx=0;entryDy=0;curved=0;" edge="1" parent="1" target="LSifstANk00XbFsExsaG-72">
          <mxGeometry width="50" height="50" relative="1" as="geometry">
            <mxPoint x="810" y="501.25" as="sourcePoint" />
            <mxPoint x="860" y="451.25" as="targetPoint" />
            <Array as="points">
              <mxPoint x="835" y="501" />
            </Array>
          </mxGeometry>
        </mxCell>
        <mxCell id="LSifstANk00XbFsExsaG-76" value="" style="endArrow=classic;html=1;rounded=1;entryX=0.5;entryY=0;entryDx=0;entryDy=0;exitX=0;exitY=0.438;exitDx=0;exitDy=0;exitPerimeter=0;curved=0;" edge="1" parent="1" source="LSifstANk00XbFsExsaG-70" target="LSifstANk00XbFsExsaG-71">
          <mxGeometry width="50" height="50" relative="1" as="geometry">
            <mxPoint x="730" y="500" as="sourcePoint" />
            <mxPoint x="705" y="542.5" as="targetPoint" />
            <Array as="points">
              <mxPoint x="715" y="500" />
            </Array>
          </mxGeometry>
        </mxCell>
        <mxCell id="LSifstANk00XbFsExsaG-77" value="\(t_1\)" style="text;html=1;align=center;verticalAlign=middle;whiteSpace=wrap;rounded=0;" vertex="1" parent="1">
          <mxGeometry x="690" y="510" width="20" height="20" as="geometry" />
        </mxCell>
        <mxCell id="LSifstANk00XbFsExsaG-78" value="\(t_2\)" style="text;html=1;align=center;verticalAlign=middle;whiteSpace=wrap;rounded=0;" vertex="1" parent="1">
          <mxGeometry x="840" y="510" width="20" height="20" as="geometry" />
        </mxCell>
        <mxCell id="LSifstANk00XbFsExsaG-79" value="già visitato" style="text;html=1;align=center;verticalAlign=middle;whiteSpace=wrap;rounded=0;fontColor=#FF3399;" vertex="1" parent="1">
          <mxGeometry x="680" y="575" width="70" height="20" as="geometry" />
        </mxCell>
        <mxCell id="LSifstANk00XbFsExsaG-83" value="Nota : nei nodi della rete, il termine \(\omega\) rappresenta un numero arbitrariamente grande di token." style="text;html=1;align=center;verticalAlign=middle;whiteSpace=wrap;rounded=0;fillColor=#f5f5f5;fontColor=#333333;strokeColor=#666666;" vertex="1" parent="1">
          <mxGeometry x="530" y="275" width="260" height="52.5" as="geometry" />
        </mxCell>
        <mxCell id="LSifstANk00XbFsExsaG-84" value="\(\omega\)" style="text;html=1;align=center;verticalAlign=middle;whiteSpace=wrap;rounded=0;fontStyle=0;fontSize=22;" vertex="1" parent="1">
          <mxGeometry x="307.5" y="255" width="25" height="25" as="geometry" />
        </mxCell>
        <mxCell id="LSifstANk00XbFsExsaG-85" value="\(\omega\)" style="text;html=1;align=center;verticalAlign=middle;whiteSpace=wrap;rounded=0;fontStyle=0;fontSize=22;" vertex="1" parent="1">
          <mxGeometry x="157.53" y="535" width="25" height="25" as="geometry" />
        </mxCell>
        <mxCell id="LSifstANk00XbFsExsaG-86" value="\(\omega\)" style="text;html=1;align=center;verticalAlign=middle;whiteSpace=wrap;rounded=0;fontStyle=0;fontSize=22;" vertex="1" parent="1">
          <mxGeometry x="467.5" y="542.5" width="25" height="25" as="geometry" />
        </mxCell>
      </root>
    </mxGraphModel>
  </diagram>
</mxfile>
